<svg xmlns="http://www.w3.org/2000/svg" viewBox="0 0 1200 480" width="1200" height="480">
  <defs>
    <linearGradient id="g" x1="0" y1="0" x2="1" y2="1"><stop offset="0" stop-color="#1b1030"/><stop offset="0.55" stop-color="#3a1850"/><stop offset="1" stop-color="#b8432f"/></linearGradient>
    <radialGradient id="l" cx="0.78" cy="0.3" r="0.5"><stop offset="0" stop-color="#ffcf7a" stop-opacity="0.55"/><stop offset="1" stop-color="#ffcf7a" stop-opacity="0"/></radialGradient>
  </defs>
  <rect width="1200" height="480" fill="url(#g)"/>
  <rect width="1200" height="480" fill="url(#l)"/>
  <g fill="#000" opacity="0.35">
    <rect x="0" y="0" width="1200" height="46"/><rect x="0" y="434" width="1200" height="46"/>
  </g>
  <g fill="#f4e6d0" opacity="0.8">
    <rect x="20" y="14" width="30" height="18" rx="3"/><rect x="90" y="14" width="30" height="18" rx="3"/><rect x="160" y="14" width="30" height="18" rx="3"/><rect x="230" y="14" width="30" height="18" rx="3"/><rect x="300" y="14" width="30" height="18" rx="3"/><rect x="370" y="14" width="30" height="18" rx="3"/><rect x="440" y="14" width="30" height="18" rx="3"/><rect x="510" y="14" width="30" height="18" rx="3"/><rect x="580" y="14" width="30" height="18" rx="3"/><rect x="650" y="14" width="30" height="18" rx="3"/><rect x="720" y="14" width="30" height="18" rx="3"/><rect x="790" y="14" width="30" height="18" rx="3"/><rect x="860" y="14" width="30" height="18" rx="3"/><rect x="930" y="14" width="30" height="18" rx="3"/><rect x="1000" y="14" width="30" height="18" rx="3"/><rect x="1070" y="14" width="30" height="18" rx="3"/><rect x="1140" y="14" width="30" height="18" rx="3"/>
    <rect x="20" y="448" width="30" height="18" rx="3"/><rect x="90" y="448" width="30" height="18" rx="3"/><rect x="160" y="448" width="30" height="18" rx="3"/><rect x="230" y="448" width="30" height="18" rx="3"/><rect x="300" y="448" width="30" height="18" rx="3"/><rect x="370" y="448" width="30" height="18" rx="3"/><rect x="440" y="448" width="30" height="18" rx="3"/><rect x="510" y="448" width="30" height="18" rx="3"/><rect x="580" y="448" width="30" height="18" rx="3"/><rect x="650" y="448" width="30" height="18" rx="3"/><rect x="720" y="448" width="30" height="18" rx="3"/><rect x="790" y="448" width="30" height="18" rx="3"/><rect x="860" y="448" width="30" height="18" rx="3"/><rect x="930" y="448" width="30" height="18" rx="3"/><rect x="1000" y="448" width="30" height="18" rx="3"/><rect x="1070" y="448" width="30" height="18" rx="3"/><rect x="1140" y="448" width="30" height="18" rx="3"/>
  </g>
  <g transform="translate(930 240)">
    <circle r="120" fill="none" stroke="#f4e6d0" stroke-width="6" opacity="0.9"/>
    <circle r="18" fill="#f4e6d0"/>
    <circle cx="0" cy="-66" r="30" fill="none" stroke="#f4e6d0" stroke-width="5"/>
    <circle cx="63" cy="-20" r="30" fill="none" stroke="#f4e6d0" stroke-width="5"/>
    <circle cx="39" cy="54" r="30" fill="none" stroke="#f4e6d0" stroke-width="5"/>
    <circle cx="-39" cy="54" r="30" fill="none" stroke="#f4e6d0" stroke-width="5"/>
    <circle cx="-63" cy="-20" r="30" fill="none" stroke="#f4e6d0" stroke-width="5"/>
  </g>
  <text x="80" y="170" font-family="Georgia, 'Times New Roman', serif" font-size="30" letter-spacing="8" fill="#ffcf7a">14 VORLAGEN · VIDEO-KI</text>
  <text x="76" y="265" font-family="Georgia, 'Times New Roman', serif" font-size="104" font-weight="700" fill="#fff8ee">Prompt Pack</text>
  <text x="80" y="330" font-family="'Segoe UI', Arial, sans-serif" font-size="32" fill="#f4e6d0" opacity="0.9">Prompt-Vorlagen von DEVinDEV Development</text>
</svg>
