<svg xmlns="http://www.w3.org/2000/svg" viewBox="0 0 1200 400" width="1200" height="400">
  <defs>
    <linearGradient id="g" x1="0" y1="0" x2="1" y2="1"><stop offset="0" stop-color="#0d1838"/><stop offset="1" stop-color="#1f3170"/></linearGradient>
    <linearGradient id="au" x1="0" y1="0" x2="0" y2="1"><stop offset="0" stop-color="#ffe9a8"/><stop offset="1" stop-color="#c8912e"/></linearGradient>
  </defs>
  <rect width="1200" height="400" fill="url(#g)"/>
  <g opacity="0.25" fill="none" stroke="#e7c16a" stroke-width="2"><line x1="880" y1="0" x2="760" y2="400"/><line x1="900" y1="0" x2="900" y2="400"/><line x1="920" y1="0" x2="1040" y2="400"/></g>
  <text x="640" y="330" font-family="Georgia, serif" font-size="230" font-weight="700" fill="url(#au)" opacity="0.28">DAN</text>
  <g transform="translate(930 205)">
    <path d="M-90 -120 h180 q0 150 -90 230 q-90 -80 -90 -230z" fill="#1a2c66" stroke="url(#au)" stroke-width="10"/>
    <polygon points="0,-72 17,-22 70,-22 27,8 43,58 0,28 -43,58 -27,8 -70,-22 -17,-22" fill="url(#au)"/>
  </g>
  <line x1="1110" y1="30" x2="1070" y2="380" stroke="#101010" stroke-width="12"/>
  <polygon points="1116,0 1128,50 1100,50" fill="url(#au)"/>
  <text x="70" y="130" font-family="'Segoe UI', Arial, sans-serif" font-size="26" letter-spacing="6" fill="#e7c16a">PROMPT #9</text>
  <text x="66" y="220" font-family="Georgia, serif" font-size="80" font-weight="700" fill="#f6f0e0">Charakter-Intro</text>
  <text x="70" y="280" font-family="'Segoe UI', Arial, sans-serif" font-size="28" fill="#c5cde6">Gaming-Reveal im Anime-Stil · 20 s</text>
</svg>
